<svg class="svg-icon" style="width: 1em; height: 1em;vertical-align: middle;fill: currentColor;overflow: hidden;" viewBox="0 0 1024 1024" version="1.1" xmlns="http://www.w3.org/2000/svg"><path d="M503.676928 0C307.97824 0 149.344256 155.2896 149.344256 346.83904c0 191.55968 236.695552 445.507584 354.332672 677.16096 122.667008-231.653376 354.338816-485.603328 354.338816-677.16096C858.015744 155.2896 699.379712 0 503.676928 0L503.676928 0zM503.676928 544.681984c-110.077952 0-199.313408-87.779328-199.313408-196.089856 0-108.281856 89.235456-196.08576 199.313408-196.08576s199.317504 87.803904 199.317504 196.08576C702.994432 456.902656 613.75488 544.681984 503.676928 544.681984L503.676928 544.681984zM503.676928 261.459968c-48.939008 0-88.594432 39.018496-88.594432 87.13216 0 48.144384 39.65952 87.16288 88.594432 87.16288 48.914432 0 88.573952-39.018496 88.573952-87.16288C592.25088 300.476416 552.59136 261.459968 503.676928 261.459968L503.676928 261.459968zM503.676928 261.459968" fill="#ffffff" /></svg>